<svg width="21" height="20" viewBox="0 0 21 20" fill="none" xmlns="http://www.w3.org/2000/svg">
<path d="M0.75 0.75H3.25L5.25 14.75H15.75C16.8546 14.75 17.75 15.6454 17.75 16.75C17.75 17.8546 16.8546 18.75 15.75 18.75C14.6454 18.75 13.75 17.8546 13.75 16.75M7.75 2.75H19.7501L17.7501 8.75M16.75 11.75H4.82141M9.75 16.75C9.75 17.8546 8.85457 18.75 7.75 18.75C6.64543 18.75 5.75 17.8546 5.75 16.75C5.75 15.6454 6.64543 14.75 7.75 14.75C8.85457 14.75 9.75 15.6454 9.75 16.75Z" stroke="#303635" stroke-width="1.5" stroke-linecap="round" stroke-linejoin="round"/>
</svg>
